<svg width="160" height="40" viewBox="0 0 710 173" fill="none" xmlns="http://www.w3.org/2000/svg">
<path d="M239.3 134.7V7.29996L260.4 5.19995V134.7H239.3Z" fill="black"/>
<path d="M361.1 97.3H285.7C287.6 109.5 297.5 119.9 313.1 120.1C325 120.3 335.3 114.1 339.4 104.9L357.5 112.3C350.1 127.2 334.2 137.1 313.3 137.1C284.4 137.1 264.4 117.2 264.4 90.0999C264.4 62.0999 286.1 42.7 313.1 42.7C341.3 42.7 361.3 63.2 361.3 90.7C361.3 92.9 361.3 94.8 361.1 97.3ZM286.1 80.0999H339.1C336.4 67.6999 326 59.5999 312.6 59.5999C299.5 59.5999 288.9 68.2999 286.1 80.0999Z" fill="black"/>
<path d="M462.5 97.3H387.1C389 109.5 398.9 119.9 414.5 120.1C426.4 120.3 436.7 114.1 440.8 104.9L458.9 112.3C451.5 127.2 435.6 137.1 414.7 137.1C385.8 137.1 365.8 117.2 365.8 90.0999C365.8 62.0999 387.5 42.7 414.5 42.7C442.7 42.7 462.7 63.2 462.7 90.7C462.7 92.9 462.7 94.8 462.5 97.3ZM387.5 80.0999H440.5C437.8 67.6999 427.4 59.5999 414 59.5999C400.9 59.5999 390.3 68.2999 387.5 80.0999Z" fill="black"/>
<path d="M567.3 89.8999C567.3 117.9 546.9 136.9 522.3 136.9C509.3 136.9 498.3 131.6 490.8 122.4V170.5L469.7 172.5V44.9999H487.6L490 58.3999C497.5 48.4999 509 42.7999 522.5 42.7999C547.5 42.7999 567.3 62.1999 567.3 89.8999ZM546.2 89.8999C546.2 73.1999 534.2 61.2999 518.9 61.2999C503.5 61.2999 490.7 73.3999 490.7 89.8999C490.7 106.4 503.4 118.4 518.9 118.4C534.2 118.4 546.2 106.5 546.2 89.8999Z" fill="black"/>
<path d="M624.9 43.2V65.3H613.8C601.6 65.3 595 72.1999 595 83.9999V134.7H573.9V45.0999H591.8L593.6 59.8999C597.5 50.2999 607 43.3 620.1 43.3H624.9V43.2Z" fill="black"/>
<path d="M627.1 110.3L646.9 105.4C648.8 114.8 656 121.3 669.2 121.3C680.6 121.3 687.8 116.7 687.8 109.4C687.8 104 683.4 100.9 676.2 99.5L653.9 95.1C640.2 92.4 630.4 84.4 630.4 70.5C630.4 52.4 646.5 42.6 669 42.6C691.5 42.6 706.4 52.6 709.2 68.8L689.5 73.7C687.7 64.1 680.5 58.4 668.3 58.4C658.5 58.4 651 61.8 651 69.4C651 75 655.5 78 662.7 79.3L685.3 83.8C700.2 86.8 709.3 94.8 709.3 108.2C709.3 127 692.5 137 669 137C644.7 137.1 629.8 126.5 627.1 110.3Z" fill="black"/>
<path d="M214.3 72.4C223.5 67.6 229.7 57.7 229.7 46.3C229.7 28.6 215.3 16.2 194.7 16.2H140.1V134.7H199.3C219.8 134.7 234.6 121.5 234.6 102.7C234.6 88.5 226.6 76.8 214.3 72.4ZM149.7 46.3999C149.7 35.8999 158.2 27.3999 168.7 27.3999H193.6C204.1 27.3999 212.6 35.8999 212.6 46.3999C212.6 56.8999 204.1 65.3999 193.6 65.3999H176.4L176.2 77.3L162.3 64.2C154.9 61.6 149.7 54.5999 149.7 46.3999ZM194 120.2H169.2C158.7 120.2 150.2 111.7 150.2 101.2C150.2 90.7 158.7 82.2 169.2 82.2H186.4L186.6 70.3L200.5 83.4C207.8 86.1 213 93 213 101.3C213 111.7 204.5 120.2 194 120.2Z" fill="black"/>
<path d="M0 89.5V119.9L30.9 135.8V166.2L121 121.4V89.5L91.1 75.6L121 60.7V30.8L60.5 0L0 30.3V71.5L30.4 86.9V46.3L60.5 29.8L90.1 44.7V104.4L60.5 119.9L0 89.5Z" fill="#FFC82C"/>
</svg>

